PathFileType	4	(X/Y/Z)	/Users/itak/Documents/Research/Walk-IL/dataset/trc/00331_00011.trc
DataRate	CameraRate	NumFrames	NumMarkers	Units	OrigDataRate	OrigDataStartFrame	OrigNumFrames
100.000000	100.000000	4	55	mm	100.000000	495	792
Frame#	Time	RPSI			LPSI			L3			STRN			T10			C7			CLAV			RBAK			LBAK			LSHO			LUPA			LAEL			LAOL			LWTS			LWPS			LFRA			LIFD			LHPS			RSHO			RUPA			RAEL			RAOL			RWTS			RWPS			RFRA			RIFD			RHTS			RHPS			RBHD			LFHD			RFHD			LBHD			LHIP			RHIP			RASI			LASI			LKNE			LTHI			LANK			LTIP			LTOE			LMT1			LMT5			LHEE			RKNE			RTHI			RANK			RTIP			RTOE			RMT1			RMT5			RHEE			LHTS			*53			*54			
		X1	Y1	Z1	X2	Y2	Z2	X3	Y3	Z3	X4	Y4	Z4	X5	Y5	Z5	X6	Y6	Z6	X7	Y7	Z7	X8	Y8	Z8	X9	Y9	Z9	X10	Y10	Z10	X11	Y11	Z11	X12	Y12	Z12	X13	Y13	Z13	X14	Y14	Z14	X15	Y15	Z15	X16	Y16	Z16	X17	Y17	Z17	X18	Y18	Z18	X19	Y19	Z19	X20	Y20	Z20	X21	Y21	Z21	X22	Y22	Z22	X23	Y23	Z23	X24	Y24	Z24	X25	Y25	Z25	X26	Y26	Z26	X27	Y27	Z27	X28	Y28	Z28	X29	Y29	Z29	X30	Y30	Z30	X31	Y31	Z31	X32	Y32	Z32	X33	Y33	Z33	X34	Y34	Z34	X35	Y35	Z35	X36	Y36	Z36	X37	Y37	Z37	X38	Y38	Z38	X39	Y39	Z39	X40	Y40	Z40	X41	Y41	Z41	X42	Y42	Z42	X43	Y43	Z43	X44	Y44	Z44	X45	Y45	Z45	X46	Y46	Z46	X47	Y47	Z47	X48	Y48	Z48	X49	Y49	Z49	X50	Y50	Z50	X51	Y51	Z51	X52	Y52	Z52	X53	Y53	Z53	X54	Y54	Z54	X55	Y55	Z55	

496	4.95	590.7252807617188	925.6393432617188	198.9659118652344	591.9994506835938	933.4102172851562	67.57569122314453	586.64697265625	1005.050109863281	128.4618988037109	829.6316528320312	1170.155395507812	138.8672332763672	588.193359375	1122.25634765625	100.9715576171875	646.4617309570312	1366.207275390625	90.93678283691406	794.0170288085938	1297.008178710938	129.3830261230469	575.54443359375	1230.132446289062	146.4675140380859	658.648681640625	1330.266357421875	-12.30340003967285	757.2276000976562	1343.237182617188	-45.39776992797852	766.9144287109375	1222.858520507812	-113.3456954956055	815.2726440429688	1021.64404296875	-113.9338455200195	737.2769775390625	999.8959350585938	-85.94862365722656	916.800537109375	792.5648803710938	-29.30180740356445	903.18408203125	777.7003784179688	-95.48238372802734	845.1788940429688	920.6511840820312	-111.5456695556641	940.2202758789062	634.1318969726562	-18.35181427001953	906.4490966796875	708.3042602539062	-87.88764953613281	668.3416137695312	1344.804077148438	263.0801391601562	638.9443969726562	1280.452392578125	322.0434875488281	620.2351684570312	1013.763916015625	361.2507934570312	603.0093383789062	1005.509826660156	269.09521484375	745.6378784179688	791.5933837890625	346.6522827148438	693.646484375	771.2434692382812	398.8195190429688	641.167724609375	945.5313110351562	376.9692993164062	770.7433471679688	620.4334716796875	362.2328491210938	776.3616333007812	693.1575927734375	372.0359497070312	713.9012451171875	689.4837036132812	400.8885803222656	673.9467163085938	1558.2001953125	190.8288726806641	852.3134765625	1583.174926757812	86.14147186279297	834.2959594726562	1584.3544921875	185.6323089599609	672.8436889648438	1549.505004882812	46.52513885498047	678.1951904296875	880.3770141601562	-39.07774353027344	678.7611694335938	878.3975830078125	303.4145202636719	779.5850219726562	914.041259765625	258.4967956542969	799.3917846679688	905.1521606445312	20.12623023986816	728.8287963867188	418.5644836425781	-7.520341396331787	729.5984497070312	559.2648315429688	-25.0244140625	471.0854797363281	67.35679626464844	15.82840347290039	602.3235473632812	229.5301971435547	-6.196481704711914	666.9509887695312	36.46268081665039	85.12348937988281	596.341552734375	29.5147762298584	123.8625946044922	593.049560546875	46.54560089111328	8.690411567687988	431.6180725097656	77.80519104003906	80.55014801025391	902.5529174804688	459.0667419433594	290.843994140625	816.3065185546875	701.6556396484375	317.1452941894531	962.797607421875	45.32831954956055	279.836181640625	946.58251953125	349.3839721679688	287.8807067871094	1155.127563476562	39.25219345092773	219.4986572265625	1097.354736328125	40.44232177734375	180.1777954101562	1064.171875	29.24278831481934	292.0670471191406	910.5653686523438	45.56911087036133	233.7182464599609	944.0001220703125	716.9935913085938	-37.43395233154297	nan	nan	nan	nan	nan	nan	
497	4.96	582.3114624023438	924.319580078125	197.8999938964844	583.2711791992188	932.5775146484375	66.48750305175781	578.6295776367188	1004.235961914062	127.6317291259766	821.576416015625	1169.275634765625	137.7226104736328	579.7725219726562	1121.381469726562	99.63161468505859	638.64208984375	1365.471435546875	89.49306488037109	786.0235595703125	1296.117431640625	127.9907379150391	567.2846069335938	1229.638061523438	144.8667297363281	650.6819458007812	1329.362915039062	-13.83174705505371	749.2987670898438	1342.207397460938	-46.85174942016602	759.3784790039062	1221.822631835938	-114.6674270629883	809.1707763671875	1021.008544921875	-115.0881958007812	731.1004638671875	998.6764526367188	-87.50669860839844	911.7769165039062	792.6736450195312	-29.55937194824219	898.765380859375	777.6546630859375	-95.84110260009766	839.8062744140625	920.17431640625	-112.4309539794922	936.3246459960938	634.47216796875	-18.29620933532715	902.4053955078125	708.407470703125	-88.04285430908203	660.2996215820312	1343.92333984375	261.7452087402344	630.3941650390625	1279.419189453125	320.3910217285156	609.347900390625	1012.544250488281	357.3041381835938	593.837646484375	1004.965698242188	264.7226867675781	733.3474731445312	789.4996948242188	343.9523315429688	680.0258178710938	769.2620849609375	394.7437133789062	629.5077514648438	944.1105346679688	373.0285949707031	756.718994140625	618.0045776367188	359.0070495605469	762.8690185546875	690.7793579101562	369.4368896484375	699.6502075195312	687.3333740234375	396.8457641601562	666.8247680664062	1557.508544921875	189.4859466552734	845.3806762695312	1582.037231445312	85.0179443359375	827.2897338867188	1583.070556640625	184.4855651855469	665.822265625	1549.081420898438	45.17474746704102	669.5293579101562	880.0597534179688	-40.35297775268555	671.220458984375	877.3030395507812	302.1733703613281	771.3704833984375	913.07568359375	257.210205078125	790.6810913085938	904.8038330078125	18.77814483642578	722.3379516601562	418.1121520996094	-8.357535362243652	722.2567138671875	559.03271484375	-26.17146873474121	469.3502502441406	63.80502700805664	16.73796463012695	598.22900390625	227.3011627197266	-6.103847503662109	666.528564453125	36.52166748046875	85.33799743652344	595.8636474609375	28.48834991455078	123.9794769287109	592.0670166015625	46.25651550292969	9.11014461517334	429.8133850097656	73.06373596191406	81.62998199462891	899.7719116210938	461.1168518066406	290.3418273925781	809.7095336914062	701.881591796875	316.0409240722656	960.68505859375	45.94326019287109	281.198974609375	943.9257202148438	351.33251953125	288.0106811523438	1152.892578125	41.97397232055664	220.4536895751953	1094.920043945312	43.39021682739258	181.2326354980469	1062.3134765625	30.13699150085449	293.0313110351562	908.2224731445312	46.34017944335938	235.2359924316406	939.6006469726562	717.3346557617188	-37.39616775512695	nan	nan	nan	nan	nan	nan	
498	4.97	574.1647338867188	923.2460327148438	196.9618530273438	574.6898193359375	931.9009399414062	65.52826690673828	570.7197265625	1003.582824707031	126.9445190429688	813.6552124023438	1168.6806640625	136.5609436035156	571.5197143554688	1120.687133789062	98.61917877197266	630.8154296875	1364.932495117188	88.23389434814453	778.0875854492188	1295.4833984375	126.5981750488281	559.0580444335938	1229.355102539062	143.5687561035156	642.5545654296875	1328.632080078125	-15.17768383026123	741.1597290039062	1341.364501953125	-48.27019882202148	751.4971923828125	1220.960083007812	-115.9541854858398	802.7206420898438	1020.560791015625	-116.2564392089844	724.6396484375	997.6478271484375	-88.96697998046875	906.578125	793.0260009765625	-29.9527587890625	894.0751342773438	777.8282470703125	-96.29959106445312	834.1048583984375	919.8904418945312	-113.3574523925781	932.3001098632812	635.0677490234375	-18.36711692810059	898.1859741210938	708.6902465820312	-88.3603515625	652.5156860351562	1343.315673828125	260.576171875	622.1922607421875	1278.67626953125	318.9516906738281	598.7498168945312	1011.648010253906	353.5501708984375	584.8319702148438	1004.786254882812	260.5953674316406	720.9718627929688	787.5543212890625	341.1800231933594	666.362548828125	767.5137329101562	390.6460266113281	618.0881958007812	943.0123291015625	369.2241516113281	742.2691650390625	615.646484375	355.4688720703125	749.0972290039062	688.4414672851562	366.5723876953125	685.1934204101562	685.382568359375	392.6778259277344	659.6995849609375	1557.045776367188	188.1556854248047	838.39892578125	1581.141845703125	83.82361602783203	820.2713623046875	1582.048828125	183.2755889892578	658.74169921875	1548.861572265625	43.83644485473633	660.9739990234375	879.916015625	-41.54198837280273	663.90478515625	876.4494018554688	301.0297546386719	763.4053344726562	912.3463745117188	255.9668121337891	782.119384765625	904.6605224609375	17.47093772888184	716.2845458984375	417.8745727539062	-9.253935813903809	715.23828125	558.9891967773438	-27.29931640625	467.9225769042969	60.67794418334961	17.63894653320312	594.4956665039062	225.4071960449219	-6.013473033905029	666.1497192382812	36.56909561157227	85.51234436035156	595.4971923828125	27.57622718811035	124.0949783325195	591.2405395507812	46.00651168823242	9.507048606872559	428.4154663085938	68.81178283691406	82.72034454345703	896.8093872070312	463.2466735839844	289.9753112792969	803.2295532226562	702.3024291992188	315.028564453125	957.46240234375	46.61395645141602	282.6074829101562	940.813720703125	353.2698364257812	288.1504516601562	1149.548583984375	45.0731086730957	221.4970092773438	1091.40087890625	46.50620269775391	182.3595275878906	1059.377685546875	31.34107971191406	294.0877075195312	904.7816162109375	47.03603363037109	236.7872314453125	935.0318603515625	717.9237670898438	-37.50534439086914	nan	nan	nan	nan	nan	nan	
499	4.98	566.283203125	922.427978515625	196.1607971191406	566.2646484375	931.3886108398438	64.70362854003906	562.9012451171875	1003.110473632812	126.4080352783203	805.8702392578125	1168.371337890625	135.3691253662109	563.4385986328125	1120.197265625	97.92698669433594	622.995361328125	1364.608276367188	87.16951751708984	770.220947265625	1295.112670898438	125.2077255249023	550.886962890625	1229.298828125	142.5842437744141	634.2787475585938	1328.099853515625	-16.33233642578125	732.8233642578125	1340.731201171875	-49.64770126342773	743.2745361328125	1220.290771484375	-117.2023010253906	795.9013671875	1020.307556152344	-117.4384231567383	717.880126953125	996.8298950195312	-90.31607055664062	901.1920166015625	793.6371459960938	-30.49674034118652	889.0818481445312	778.232177734375	-96.86845397949219	828.0498046875	919.81005859375	-114.3302230834961	928.1329956054688	635.9296875	-18.58255386352539	893.7644653320312	709.157958984375	-88.85431671142578	645.0162353515625	1342.985107421875	259.5826721191406	614.3763427734375	1278.224853515625	317.7395629882812	588.5009765625	1011.082885742188	350.0524291992188	575.9921264648438	1004.971923828125	256.7870483398438	708.5452880859375	785.76611328125	338.3293762207031	652.7396240234375	766.0201416015625	386.584228515625	606.9776000976562	942.2465209960938	365.6122436523438	727.4132690429688	613.382080078125	351.5974426269531	735.0468139648438	686.1117553710938	363.3641662597656	670.59423828125	683.6546630859375	388.4217834472656	652.575927734375	1556.821655273438	186.846923828125	831.3698120117188	1580.50634765625	82.56149291992188	813.2440185546875	1581.31005859375	182.0068664550781	651.6053466796875	1548.847900390625	42.51958465576172	652.5377197265625	879.940673828125	-42.63747024536133	656.7613525390625	875.8140869140625	299.9573669433594	755.6920776367188	911.874267578125	254.7605895996094	773.7296142578125	904.7340698242188	16.19858169555664	710.64892578125	417.85693359375	-10.17209434509277	708.536865234375	559.1384887695312	-28.38132858276367	466.764404296875	57.99010467529297	18.52936172485352	591.1029052734375	223.8584289550781	-5.905133247375488	665.8360595703125	36.60390472412109	85.64865875244141	595.2333374023438	26.79377746582031	124.2143020629883	590.5569458007812	45.8064079284668	9.888152122497559	427.3729248046875	65.06277465820312	83.81673431396484	893.6299438476562	465.4348754882812	289.7043762207031	796.8943481445312	702.9271850585938	314.1082458496094	952.9451904296875	47.35945129394531	284.0299377441406	937.1602783203125	355.1658935546875	288.2930908203125	1144.91943359375	48.44268417358398	222.6636199951172	1086.643432617188	49.6666145324707	183.5730590820312	1055.15185546875	32.84075927734375	295.2469177246094	900.0772705078125	47.68228912353516	238.3155822753906	930.2767333984375	718.7737426757812	-37.78619384765625	nan	nan	nan	nan	nan	nan	
